<svg width="162" height="73" viewBox="0 0 162 73" fill="none" xmlns="http://www.w3.org/2000/svg">
<path d="M141.367 22.3818L140.135 20.2392H139.465V22.3818H138.587V17.0273H140.435C140.845 17.0273 141.193 17.1003 141.479 17.242C141.764 17.3859 141.977 17.5791 142.119 17.8196C142.26 18.0622 142.331 18.3305 142.331 18.629C142.331 18.9789 142.23 19.2945 142.026 19.58C141.822 19.8656 141.511 20.0588 141.09 20.1619L142.415 22.3818H141.367ZM139.465 19.5393H140.435C140.764 19.5393 141.013 19.4577 141.178 19.2924C141.346 19.127 141.429 18.9081 141.429 18.629C141.429 18.3499 141.348 18.1352 141.183 17.9784C141.017 17.8217 140.768 17.7444 140.435 17.7444H139.465V19.5393Z" fill="#3A3B38"/>
<path d="M95.5192 48.6417C96.9619 48.7233 98.278 48.5494 99.564 48.1243C102.89 47.0251 104.592 44.5669 105.112 41.2541C105.485 38.8689 104.785 36.6898 103.321 34.7661C101.855 32.8403 99.841 31.9279 97.4858 31.8076C95.1843 31.6896 92.8742 31.6981 90.5684 31.681C87.5025 31.6595 84.4367 31.6724 81.3709 31.6595C73.7235 31.6273 66.0783 31.5887 58.4309 31.5564C50.6633 31.5221 42.8957 31.4835 35.1281 31.4749C34.074 31.4749 33.2217 31.155 32.5003 30.4035C31.8584 29.7337 31.152 29.124 30.538 28.4327C29.6019 27.3785 29.1189 26.129 29.1811 24.6991C29.1919 24.4608 29.2327 24.2182 29.3056 23.9928C29.4924 23.4002 29.6964 23.2607 30.3169 23.2628C40.4268 23.2972 50.5367 23.3337 60.6466 23.3702C69.5671 23.4024 78.4897 23.4346 87.4102 23.4732C90.7165 23.4883 94.0228 23.5076 97.3291 23.5484C99.9075 23.5806 102.443 23.894 104.856 24.8773C106.561 25.5708 108.13 26.4789 109.453 27.7778C109.597 27.9195 109.771 28.0333 109.949 28.175C110.492 27.707 111.005 27.2518 111.531 26.816C113.753 24.9804 116.282 23.8082 119.125 23.3101C123.3 22.5801 127.296 23.1576 131.047 25.1092C134.782 27.0522 137.346 30.0364 138.653 34.0769C139.36 36.2604 139.701 38.4932 139.632 40.7754C139.51 44.7858 138.378 48.4786 135.817 51.6217C133.687 54.2345 131.012 56.0637 127.702 56.9203C125.544 57.4785 123.356 57.6653 121.151 57.4957C117.959 57.2509 114.964 56.3428 112.345 54.4384C111.583 53.8845 110.9 53.2211 110.198 52.5878C109.76 52.1928 109.766 52.1713 109.337 52.5685C107.684 54.0971 105.822 55.2693 103.641 55.8919C102.08 56.3363 100.491 56.6562 98.8706 56.6841C95.2895 56.7464 91.7084 56.7443 88.1273 56.7593C87.6979 56.7593 87.2685 56.6992 86.8391 56.6798C86.5557 56.6691 86.3818 56.5446 86.3303 56.2676C86.2874 56.0336 86.2273 55.7953 86.2273 55.5592C86.2337 49.5349 86.2423 43.5106 86.2595 37.4863C86.2616 36.5416 86.633 36.1745 87.5841 36.1788C89.9264 36.1895 92.2666 36.2174 94.6089 36.2453C95.1714 36.2518 95.4591 36.5137 95.5299 37.0805C95.5643 37.3532 95.5514 37.6301 95.5492 37.9049C95.5407 41.2777 95.5299 44.6527 95.5213 48.0256C95.5213 48.2102 95.5213 48.397 95.5213 48.646L95.5192 48.6417ZM41.6999 24.5875V24.5489C38.1338 24.5489 34.5699 24.5489 31.0039 24.5489C30.3941 24.5489 30.3576 24.5768 30.4178 25.1951C30.5079 26.1118 30.8471 26.9448 31.4719 27.6125C32.1868 28.3768 32.9812 29.0703 33.7283 29.8045C33.9924 30.0643 34.2865 30.1717 34.6537 30.1738C36.427 30.1846 38.1982 30.2232 39.9716 30.2318C48.5636 30.2704 57.1578 30.3048 65.7498 30.337C74.8764 30.3735 84.003 30.4035 93.1318 30.4486C94.6797 30.4572 96.2277 30.4937 97.7735 30.5753C99.0917 30.6461 100.367 30.9789 101.513 31.638C104.708 33.4736 106.254 36.3291 106.443 39.9402C106.531 41.5998 106.086 43.1778 105.352 44.6656C104.405 46.585 102.971 48.0062 101.013 48.9037C99.4996 49.5971 97.898 49.8612 96.2577 49.9406C95.7833 49.9642 95.3024 49.8934 94.8279 49.8247C94.4264 49.7667 94.2783 49.5069 94.2826 49.0904C94.2997 47.1968 94.2868 45.3033 94.289 43.4118C94.289 41.5869 94.2911 39.762 94.3062 37.9393C94.3083 37.6258 94.2504 37.4691 93.8875 37.4712C91.9252 37.4777 89.9608 37.4691 87.9985 37.4519C87.6807 37.4498 87.5305 37.5271 87.5326 37.8813C87.5369 38.7229 87.4918 39.5667 87.4897 40.4082C87.4768 45.2281 87.4703 50.0458 87.4618 54.8657C87.4618 55.4604 87.4575 55.4647 88.05 55.4668C91.1674 55.4711 94.2847 55.5012 97.402 55.4604C98.6344 55.4454 99.871 55.3123 101.097 55.1577C104.008 54.7863 106.509 53.5432 108.633 51.5208C108.942 51.2266 109.298 50.9797 109.644 50.7264C109.908 50.5353 110.108 50.574 110.335 50.8574C111.759 52.635 113.538 53.9554 115.623 54.8721C118.296 56.0487 121.108 56.4244 123.996 56.2526C125.63 56.156 127.238 55.849 128.777 55.2629C131.145 54.3612 133.106 52.897 134.726 50.954C136.897 48.3519 137.986 45.3118 138.29 41.9905C138.486 39.8608 138.355 37.7267 137.807 35.6399C137.174 33.2246 136.15 31.009 134.407 29.1841C131.343 25.983 127.502 24.5102 123.152 24.2762C120.522 24.1345 117.976 24.5918 115.574 25.7125C113.614 26.6249 111.922 27.9002 110.49 29.5211C110.385 29.6392 110.095 29.7358 109.974 29.6757C109.599 29.4868 109.221 29.2614 108.922 28.9694C107.158 27.2433 105.067 26.114 102.694 25.472C100.82 24.9632 98.9049 24.7936 96.9748 24.7807C90.0531 24.7378 83.1293 24.7206 76.2075 24.6927C68.0449 24.6583 59.8823 24.6176 51.7196 24.5875C48.379 24.5746 45.0362 24.5875 41.6956 24.5875H41.6999Z" fill="#F6E431"/>
<path d="M21.899 55.9551C20.3661 55.9551 18.8353 55.9551 17.3024 55.9551C16.4544 55.9551 16.2568 55.7555 16.2568 54.9289C16.259 53.1749 16.2611 51.4187 16.2676 49.6646C16.2676 49.1236 16.3878 48.9669 16.9159 48.8466C17.1478 48.793 17.3926 48.7715 17.6287 48.7736C19.6769 48.7887 21.7251 48.8509 23.7711 48.8123C24.6363 48.7951 25.5488 48.7092 26.3517 48.4172C28.5008 47.6358 29.351 45.5983 28.5867 43.3677C28.2174 42.2878 27.5325 41.4011 26.824 40.538C24.9906 38.3073 23.1249 36.1024 21.2978 33.8675C20.1771 32.4956 19.0822 31.1065 18.4768 29.3997C17.8842 27.7337 17.7683 26.0505 18.1418 24.3265C18.2127 24.0002 18.3759 23.7984 18.7151 23.764C19.0564 23.7275 19.3978 23.6653 19.7392 23.6631C21.3923 23.6567 23.0454 23.661 24.6986 23.6738C25.1795 23.6781 25.6647 23.6996 26.137 23.7769C26.3109 23.8048 26.5127 23.9894 26.5943 24.1548C26.6866 24.3415 26.706 24.5949 26.6802 24.8096C26.4612 26.5701 27.1912 27.9999 28.2603 29.2924C30.1861 31.6239 32.1742 33.9061 34.0764 36.2592C35.4676 37.981 36.5861 39.8746 37.1873 42.0323C37.7562 44.074 37.7219 46.1179 37.1358 48.1403C35.9184 52.3311 33.0544 54.7593 28.8422 55.6288C27.7386 55.8564 26.5922 55.9036 25.4629 55.9551C24.2778 56.0088 23.0884 55.968 21.899 55.968V55.9594V55.9551ZM17.4763 54.7206C18.1934 54.7206 18.8439 54.7335 19.4923 54.7185C22.3112 54.6541 25.1408 54.9332 27.949 54.521C29.8147 54.2462 31.5537 53.6257 33.0222 52.3955C36.1675 49.7591 36.9812 45.3579 35.8562 41.9206C35.1198 39.6728 33.7737 37.7856 32.2837 35.9929C30.6026 33.9705 28.8679 31.9932 27.2019 29.9579C26.1134 28.629 25.3834 27.1197 25.3834 25.3485C25.3834 25.0049 25.2224 24.9577 24.9412 24.9556C23.4791 24.9448 22.0171 24.9062 20.555 24.904C19.1681 24.9019 19.2454 24.6206 19.1981 26.2437C19.1402 28.3434 19.9624 30.1748 21.2635 31.7828C23.4383 34.4686 25.6475 37.1244 27.8374 39.7973C28.8701 41.0576 29.7546 42.3801 30.0573 44.0396C30.4502 46.1995 29.1985 48.604 27.1804 49.4564C25.9116 49.9931 24.5826 50.0704 23.2344 50.0661C21.4782 50.0597 19.722 50.0597 17.9658 50.0554C17.7253 50.0554 17.472 50.006 17.4741 50.3903C17.4827 51.7987 17.4784 53.2092 17.4784 54.7206H17.4763Z" fill="#F7E531"/>
<path d="M71.5129 56.1515C68.2581 56.1515 65.0034 56.1343 61.7486 56.1622C60.7417 56.1708 60.5807 55.6856 60.5485 55.0372C60.5055 54.1441 60.5399 53.2488 60.5485 52.3536C60.5506 52.0959 60.5871 51.8383 60.5893 51.5828C60.6065 47.3834 60.6193 43.184 60.6408 38.9846C60.643 38.3663 60.6837 37.748 60.688 37.1297C60.688 36.8677 60.7653 36.6981 61.0466 36.6616C61.2849 36.6316 61.521 36.5586 61.7572 36.5586C68.1465 36.5629 74.5357 36.5693 80.925 36.5865C81.9233 36.5887 82.0887 36.6939 82.1187 37.66C82.1724 39.3775 82.1617 41.0993 82.1101 42.8169C82.0865 43.6241 81.8138 43.7959 80.9744 43.7938C77.2022 43.7852 73.4301 43.7766 69.6601 43.768C69.0289 43.768 68.9924 43.7873 68.9859 44.4335C68.9731 45.7925 68.9902 47.1537 68.9645 48.5127C68.958 48.9206 69.1255 48.9915 69.4862 48.9936C73.3077 49.0044 77.1314 49.0301 80.9529 49.0516C81.8224 49.0559 82.0844 49.2727 82.0801 50.1358C82.0715 51.9929 82.02 53.85 82.0049 55.7049C82.0028 56.0978 81.8525 56.188 81.4811 56.188C78.1576 56.1751 74.8342 56.1794 71.5086 56.1794V56.1536L71.5129 56.1515ZM71.3325 54.9213V54.9428C74.3125 54.9428 77.2924 54.9428 80.2724 54.9428C80.8456 54.9428 80.8671 54.9277 80.8692 54.376C80.8778 53.1887 80.8606 52.0015 80.8821 50.8142C80.8907 50.402 80.7468 50.2796 80.3432 50.2839C78.6042 50.299 76.863 50.2839 75.124 50.2839C73.0565 50.2796 70.9912 50.2839 68.9237 50.2732C67.9919 50.2689 67.7794 50.0499 67.745 49.1246C67.7407 49.0215 67.7364 48.9185 67.7364 48.8154C67.7407 47.2138 67.7042 45.6122 67.76 44.0127C67.8073 42.6494 67.6656 42.5292 69.2929 42.5335C72.9964 42.5421 76.6999 42.5421 80.4033 42.5614C80.7941 42.5614 80.9615 42.4691 80.9551 42.0462C80.9358 40.8245 80.9422 39.6029 80.9551 38.3792C80.9594 38.0142 80.8477 37.8575 80.4505 37.8596C79.3663 37.8661 78.2822 37.8188 77.1979 37.8167C72.3072 37.8017 67.4144 37.7952 62.5237 37.7845C61.9333 37.7845 61.9375 37.7845 61.9311 38.3813C61.9118 39.8777 61.8753 41.3742 61.8667 42.8706C61.8474 46.6749 61.8409 50.4793 61.8281 54.2815C61.8281 54.7066 62.0506 54.9199 62.4958 54.9213C65.4413 54.9213 68.3869 54.9213 71.3325 54.9213Z" fill="#F7E432"/>
<path d="M34.2521 55.8254C34.3724 55.2243 34.688 54.7949 35.1238 54.432C36.9186 52.9378 38.1402 51.0678 38.8316 48.8371C39.8256 45.621 39.6345 42.4972 38.1424 39.4679C37.8697 38.9119 37.5692 38.3708 37.2858 37.8212C37.2321 37.716 37.1784 37.6022 37.1527 37.4884C36.9766 36.6683 37.1741 36.5073 37.8504 36.4622C38.5696 36.415 39.291 36.43 40.0124 36.43C43.6793 36.4386 47.3484 36.445 51.0154 36.4665C52.3916 36.4751 53.7678 36.5223 55.1439 36.5545C55.7064 36.5674 55.9168 36.7435 56.0242 37.2888C56.05 37.4219 56.0542 37.5636 56.0521 37.6988C56.0263 39.5559 55.9834 41.413 55.9748 43.2701C55.9748 43.7017 55.7386 43.6781 55.4445 43.6781C51.5006 43.6673 47.5588 43.6609 43.6149 43.6544C43.4775 43.6544 43.3401 43.6609 43.2027 43.6544C42.9386 43.6416 42.8313 43.7682 42.8313 44.0259C42.8313 45.5223 42.8249 47.0208 42.812 48.5172C42.8098 48.7942 42.9365 48.8844 43.1898 48.8672C43.2929 48.8607 43.3959 48.8672 43.499 48.8672C47.1831 48.8929 50.8673 48.9187 54.5492 48.9445C54.7725 48.9445 54.998 48.9423 55.2191 48.9681C55.642 49.0175 55.9383 49.2322 55.9555 49.6873C55.977 50.2348 55.9684 50.7844 55.9662 51.3319C55.9641 52.6394 55.9619 53.9468 55.9533 55.2543C55.949 55.9091 55.8696 56.0315 55.232 56.0616C54.1843 56.1131 53.1344 56.1066 52.0867 56.1174C51.8463 56.1195 51.6058 56.0895 51.3653 56.0895C46.2514 56.0766 41.1374 56.0658 36.0234 56.0465C35.5446 56.0465 35.0637 55.9864 34.5849 55.9413C34.4754 55.9306 34.3702 55.8683 34.25 55.8254H34.2521ZM36.7598 54.7755C36.8413 54.7949 36.8907 54.8185 36.938 54.8185C42.7239 54.8335 48.5099 54.8421 54.2938 54.8636C54.6459 54.8636 54.7274 54.724 54.7253 54.4041C54.7146 53.1825 54.7253 51.9609 54.7253 50.7393C54.7253 50.1811 54.7253 50.1768 54.1499 50.1768C50.5345 50.1682 46.9169 50.1639 43.3015 50.1511C42.9751 50.1511 42.6488 50.121 42.3246 50.0759C41.7364 49.9922 41.6333 49.8913 41.5968 49.2858C41.5646 48.7706 41.5796 48.2532 41.5796 47.7379C41.5818 46.3102 41.5796 44.8803 41.5968 43.4526C41.6075 42.6518 41.8609 42.4157 42.6338 42.4178C45.6481 42.4242 48.6602 42.4307 51.6745 42.4371C52.5526 42.4371 53.4307 42.4371 54.3088 42.4457C54.575 42.45 54.7232 42.3942 54.7274 42.0807C54.7425 40.7904 54.7725 39.5023 54.8069 38.2141C54.8155 37.9028 54.6931 37.7869 54.3839 37.7826C53.4908 37.7676 52.5955 37.7139 51.7024 37.7096C47.5352 37.6903 43.368 37.6817 39.2008 37.6731C39.0398 37.6731 38.8809 37.6946 38.6791 37.7096C41.9103 43.8691 41.2511 49.5242 36.7533 54.7798L36.7598 54.7755Z" fill="#F6E431"/>
<path d="M145.429 19.6962C145.429 22.4335 143.209 24.6427 140.467 24.6341C137.749 24.6255 135.568 22.4206 135.574 19.6897C135.581 16.9631 137.775 14.7754 140.501 14.7754C143.215 14.7754 145.427 16.9867 145.429 19.6962ZM140.504 24.0781C142.912 24.0738 144.866 22.12 144.868 19.7112C144.868 17.2959 142.93 15.3486 140.512 15.34C138.069 15.3336 136.109 17.2916 136.122 19.7284C136.132 22.1329 138.099 24.0823 140.506 24.0781H140.504Z" fill="#3A3B38"/>
<path d="M41.7018 24.5863C45.0425 24.5863 48.3852 24.5756 51.7259 24.5863C59.8885 24.6164 68.0511 24.6572 76.2138 24.6915C83.1355 24.7216 90.0593 24.7366 96.9811 24.7796C98.909 24.7924 100.826 24.9621 102.7 25.4709C105.073 26.115 107.164 27.2421 108.929 28.9682C109.227 29.2602 109.605 29.4835 109.981 29.6746C110.101 29.7347 110.391 29.6402 110.496 29.52C111.93 27.8991 113.62 26.6238 115.58 25.7113C117.984 24.5906 120.529 24.1333 123.159 24.275C127.508 24.509 131.351 25.9818 134.413 29.1829C136.158 31.0057 137.18 33.2234 137.814 35.6387C138.361 37.7256 138.492 39.8596 138.297 41.9894C137.992 45.3107 136.903 48.3507 134.733 50.9528C133.112 52.8958 131.152 54.36 128.784 55.2617C127.244 55.8478 125.638 56.1548 124.002 56.2514C121.113 56.4232 118.302 56.0475 115.629 54.871C113.545 53.9542 111.765 52.6339 110.341 50.8562C110.114 50.5728 109.914 50.5342 109.65 50.7252C109.302 50.9764 108.948 51.2233 108.639 51.5196C106.516 53.5399 104.014 54.7851 101.103 55.1565C99.8773 55.3132 98.6428 55.4442 97.4083 55.4592C94.291 55.5 91.1736 55.47 88.0563 55.4657C87.4637 55.4657 87.468 55.4592 87.468 54.8645C87.4766 50.0447 87.483 45.227 87.4959 40.4071C87.4981 39.5655 87.5431 38.7217 87.5388 37.8801C87.5388 37.5259 87.687 37.4465 88.0047 37.4508C89.967 37.4679 91.9315 37.4765 93.8938 37.4701C94.2566 37.4701 94.3167 37.6247 94.3124 37.9381C94.2974 39.763 94.2953 41.5858 94.2953 43.4106C94.2953 45.3042 94.3038 47.1978 94.2888 49.0893C94.2845 49.5058 94.4326 49.7656 94.8341 49.8235C95.3064 49.8901 95.7895 49.9609 96.264 49.9395C97.9042 49.86 99.5059 49.596 101.019 48.9025C102.977 48.0051 104.409 46.5838 105.358 44.6645C106.093 43.1766 106.537 41.5986 106.449 39.9391C106.26 36.3279 104.712 33.4725 101.52 31.6369C100.371 30.9778 99.0979 30.6428 97.7797 30.5741C96.2339 30.4926 94.686 30.4561 93.1381 30.4475C84.0114 30.4024 74.8848 30.3723 65.7561 30.3358C57.1641 30.3015 48.5699 30.2693 39.9779 30.2306C38.2045 30.222 36.4333 30.1855 34.6599 30.1727C34.2928 30.1705 33.9965 30.0632 33.7346 29.8034C32.9853 29.0691 32.1931 28.3757 31.4781 27.6114C30.8534 26.9437 30.5142 26.1107 30.424 25.1939C30.3639 24.5756 30.4004 24.5477 31.0101 24.5477C34.5762 24.5477 38.1401 24.5477 41.7061 24.5477V24.5863H41.7018ZM122.454 50.9099C125.441 50.8948 127.82 49.7785 129.453 47.2816C130.441 45.7701 130.898 44.0676 131.109 42.2857C131.394 39.8596 131.255 37.4722 130.387 35.175C129.587 33.0538 128.217 31.39 126.121 30.4174C124.38 29.6102 122.542 29.447 120.672 29.8012C119.371 30.0481 118.178 30.5677 117.154 31.435C115.535 32.8048 114.631 34.5975 114.161 36.6156C113.635 38.872 113.639 41.1607 114.073 43.4257C114.401 45.1454 115.054 46.7663 116.194 48.1296C117.83 50.0876 119.994 50.8863 122.452 50.912L122.454 50.9099Z" fill="#BC272B"/>
<path d="M17.474 54.7193C17.474 53.2079 17.4783 51.7973 17.4697 50.389C17.4676 50.0047 17.7188 50.0519 17.9614 50.054C19.7176 50.0583 21.4738 50.0583 23.23 50.0648C24.5782 50.0691 25.9072 49.9918 27.176 49.455C29.1941 48.6006 30.4458 46.1981 30.0529 44.0383C29.7502 42.3787 28.8657 41.0562 27.833 39.796C25.6431 37.123 23.4318 34.4673 21.2591 31.7815C19.958 30.1734 19.1358 28.3443 19.1937 26.2424C19.2388 24.6193 19.1615 24.9006 20.5506 24.9027C22.0127 24.9049 23.4747 24.9435 24.9368 24.9542C25.2202 24.9564 25.379 25.0058 25.379 25.3471C25.379 27.1183 26.109 28.6255 27.1975 29.9566C28.8635 31.9897 30.5982 33.9692 32.2793 35.9916C33.7693 37.7843 35.1154 39.6715 35.8518 41.9193C36.9768 45.3565 36.1631 49.7578 33.0178 52.3942C31.5493 53.6244 29.8103 54.2448 27.9446 54.5196C25.1364 54.9319 22.3068 54.6528 19.4879 54.7172C18.8395 54.7322 18.189 54.7193 17.4719 54.7193H17.474Z" fill="#BC272B"/>
<path d="M71.3297 54.9202C68.3841 54.9202 65.4385 54.9202 62.4929 54.9202C62.0463 54.9202 61.8238 54.707 61.8252 54.2805C61.8359 50.4761 61.8445 46.6717 61.8638 42.8695C61.8724 41.3731 61.9089 39.8767 61.9283 38.3803C61.9368 37.7834 61.9325 37.7813 62.5208 37.7834C67.4115 37.792 72.3044 37.8006 77.1951 37.8156C78.2793 37.8199 79.3635 37.865 80.4477 37.8586C80.8427 37.8564 80.9544 38.011 80.9522 38.3781C80.9393 39.5997 80.9308 40.8213 80.9522 42.0451C80.9587 42.4659 80.7933 42.5625 80.4005 42.5603C76.697 42.541 72.9935 42.541 69.2901 42.5324C67.6649 42.5281 67.8066 42.6505 67.7572 44.0117C67.7014 45.6111 67.7357 47.2127 67.7336 48.8144C67.7336 48.9174 67.7379 49.0205 67.7421 49.1235C67.7765 50.051 67.9912 50.2678 68.9208 50.2721C70.9883 50.2807 73.0537 50.2807 75.1212 50.2829C76.8602 50.285 78.6013 50.3 80.3404 50.2829C80.7461 50.2786 80.8878 50.4031 80.8792 50.8132C80.8556 52.0004 80.8728 53.1877 80.8663 54.3749C80.862 54.9267 80.8427 54.9417 80.2695 54.9417C77.2896 54.9417 74.3096 54.9417 71.3297 54.9417V54.9202Z" fill="#BC282B"/>
<path d="M36.7598 54.7747C41.2576 49.519 41.9167 43.864 38.6856 37.7045C38.8874 37.6894 39.0462 37.668 39.2073 37.668C43.3745 37.6787 47.5417 37.6851 51.7089 37.7045C52.602 37.7088 53.4973 37.7624 54.3904 37.7775C54.6995 37.7818 54.8219 37.8998 54.8133 38.209C54.779 39.4972 54.7489 40.7875 54.7339 42.0756C54.7296 42.3891 54.5815 42.4427 54.3152 42.4406C53.4371 42.4299 52.559 42.432 51.6809 42.432C48.6667 42.4256 45.6545 42.4191 42.6402 42.4127C41.8673 42.4127 41.6118 42.6467 41.6032 43.4475C41.5861 44.8752 41.5882 46.3029 41.5861 47.7328C41.5861 48.2481 41.571 48.7655 41.6032 49.2807C41.6397 49.8862 41.7449 49.9871 42.3311 50.0708C42.6531 50.1159 42.9816 50.1459 43.3079 50.1459C46.9233 50.1588 50.5409 50.1631 54.1564 50.1717C54.7317 50.1717 54.7317 50.176 54.7317 50.7342C54.7317 51.9558 54.7189 53.1774 54.7317 54.399C54.7339 54.7189 54.6523 54.8606 54.3002 54.8585C48.5142 54.837 42.7282 54.8284 36.9444 54.8134C36.895 54.8134 36.8478 54.7897 36.7662 54.7704L36.7598 54.7747Z" fill="#BC282B"/>
<path d="M122.453 50.909C119.995 50.8854 117.831 50.0846 116.195 48.1266C115.055 46.7611 114.402 45.1423 114.073 43.4226C113.64 41.1576 113.635 38.869 114.161 36.6126C114.632 34.5966 115.535 32.8039 117.154 31.432C118.178 30.5647 119.372 30.043 120.673 29.7982C122.545 29.444 124.383 29.6071 126.122 30.4144C128.217 31.3869 129.587 33.0508 130.388 35.172C131.253 37.467 131.395 39.8544 131.109 42.2826C130.899 44.0667 130.442 45.7671 129.454 47.2785C127.82 49.7754 125.441 50.8918 122.455 50.9068L122.453 50.909ZM115.061 40.2731C114.975 41.7931 115.228 43.3432 115.784 44.8461C116.27 46.1557 116.927 47.3687 118.069 48.2167C120.409 49.9536 122.987 50.106 125.598 49.024C128.009 48.0257 129.091 45.9217 129.637 43.5064C130.124 41.3466 130.115 39.176 129.641 37.0097C129.235 35.1548 128.4 33.536 126.895 32.3488C125.171 30.9876 123.174 30.6699 121.042 31.0177C118.818 31.3805 117.253 32.6214 116.229 34.5966C115.319 36.3528 114.999 38.2292 115.061 40.2709V40.2731Z" fill="#F6E431"/>
<path d="M147.621 68.8767H13.3989C8.41591 68.8767 4.36035 64.8233 4.36035 59.8381V13.1616C4.36035 8.1786 8.41376 4.12305 13.3989 4.12305H147.621C152.604 4.12305 156.659 8.17645 156.659 13.1616V59.8381C156.659 64.8211 152.606 68.8767 147.621 68.8767ZM13.3989 5.25663C9.04067 5.25663 5.49608 8.80122 5.49608 13.1595V59.8359C5.49608 64.1942 9.04067 67.7388 13.3989 67.7388H147.621C151.979 67.7388 155.524 64.1942 155.524 59.8359V13.1595C155.524 8.80122 151.979 5.25663 147.621 5.25663H13.3989Z" fill="#40403D"/>
<path d="M147.394 3.30598C153.036 3.30598 157.611 7.88109 157.611 13.5232V59.4719C157.611 65.114 153.036 69.6891 147.394 69.6891H13.6267C7.98461 69.6891 3.40949 65.114 3.40949 59.4719V13.5232C3.40949 7.88109 7.98461 3.30598 13.6267 3.30598H147.394ZM147.394 2.08008H13.6267C10.5695 2.08008 7.69692 3.26948 5.53496 5.43144C3.37299 7.5934 2.18359 10.466 2.18359 13.5232V59.4719C2.18359 62.5291 3.37299 65.4017 5.53496 67.5637C7.69692 69.7256 10.5695 70.915 13.6267 70.915H147.394C150.451 70.915 153.323 69.7256 155.485 67.5637C157.647 65.4017 158.837 62.5291 158.837 59.4719V13.5232C158.837 10.466 157.647 7.5934 155.485 5.43144C153.323 3.26948 150.451 2.08008 147.394 2.08008Z" fill="#BC272B"/>
<path d="M147.496 1.22375C154.289 1.22375 159.794 6.73064 159.794 13.5214V59.4743C159.794 66.2672 154.287 71.7719 147.496 71.7719H13.5235C6.73064 71.7719 1.2259 66.2651 1.2259 59.4743V13.5214C1.2259 6.7285 6.73278 1.22375 13.5235 1.22375H147.496ZM147.496 0H13.5235C9.91239 0 6.51594 1.40624 3.96109 3.96109C1.40624 6.51594 0 9.91024 0 13.5235V59.4765C0 63.0876 1.40624 66.4841 3.96109 69.0389C6.51594 71.5938 9.91024 73 13.5235 73H147.496C151.108 73 154.504 71.5938 157.059 69.0389C159.614 66.4841 161.02 63.0898 161.02 59.4765V13.5235C161.02 9.91238 159.614 6.51594 157.059 3.96109C154.504 1.40624 151.11 0 147.496 0Z" fill="#40403D"/>
</svg>
